<svg width="1001" xmlns="http://www.w3.org/2000/svg" height="1087" fill="none"><defs><clipPath id="a" class="frame-clip frame-clip-def"><rect rx="0" ry="0" width="1001" height="1087"/></clipPath></defs><g clip-path="url(#a)"><g class="fills"><rect rx="0" ry="0" width="1001" height="1087" class="frame-background"/></g><g class="frame-children"><path d="M796.432 153.901C914.565 242.898 991 384.343 991 543.5c0 102.139-31.479 196.983-85.256 275.352L804.396 667.553 689.833 498s-34.569-51.228-104-1.083c-58.5 42.25-32.5 111.583-32.5 111.583l230.152 334.025C704.234 998.263 607.66 1031 503.5 1031c-66.395 0-129.708-13.302-187.417-37.384V717.917l480.349-564.016Zm-659.434 710.92C61.683 779 16 666.543 16 543.5c0-122.166 45.034-233.896 119.392-319.482l1.606 640.803Zm178.18-771.058C373.129 69.442 436.757 56 503.5 56c44.165 0 86.967 5.886 127.662 16.915L317.167 443.833l-1.989-350.07Z" style="fill: rgb(71, 133, 71); fill-opacity: 1;" class="fills"/></g></g></svg>